<svg xmlns="http://www.w3.org/2000/svg" viewBox="0 0 64 64" width="64" height="64">
  <!-- Laptop screen -->
  <rect x="12" y="8" width="40" height="28" rx="3" ry="3" fill="#0e7490" />
  <rect x="15" y="11" width="34" height="22" rx="1" ry="1" fill="#e0f7fa" />
  <!-- Refresh/recycle arrows on screen -->
  <g transform="translate(32,22)" fill="none" stroke="#0e7490" stroke-width="2.5" stroke-linecap="round">
    <path d="M-5,-6 A8,8 0 0,1 7,-2" />
    <path d="M5,6 A8,8 0 0,1 -7,2" />
    <polygon points="7,-2 4,-5.5 3.5,-1" fill="#0e7490" stroke="none"/>
    <polygon points="-7,2 -4,5.5 -3.5,1" fill="#0e7490" stroke="none"/>
  </g>
  <!-- Laptop base / keyboard -->
  <path d="M8,36 L12,36 L12,40 Q12,42 14,42 L50,42 Q52,42 52,40 L52,36 L56,36 Q58,36 57,39 L54,44 Q53,46 50,46 L14,46 Q11,46 10,44 L7,39 Q6,36 8,36 Z" fill="#0c6478"/>
  <!-- Keyboard line -->
  <rect x="22" y="37" width="20" height="2" rx="1" fill="#0a5060"/>
</svg>
